<svg width="48" height="50" viewBox="0 0 48 50" fill="none" xmlns="http://www.w3.org/2000/svg">
<path fill-rule="evenodd" clip-rule="evenodd" d="M34.83 29.6038C34.234 29.3012 31.312 27.8435 30.768 27.6404C30.224 27.4394 29.828 27.3399 29.43 27.945C29.034 28.546 27.896 29.9063 27.55 30.3083C27.202 30.7123 26.856 30.7611 26.262 30.4606C25.668 30.156 23.752 29.5205 21.482 27.4658C19.716 25.8659 18.522 23.8904 18.176 23.2853C17.83 22.6823 18.138 22.3555 18.436 22.055C18.704 21.7849 19.03 21.3504 19.328 20.9992C19.626 20.6459 19.724 20.3941 19.922 19.9901C20.122 19.5881 20.022 19.2368 19.872 18.9343C19.724 18.6318 18.536 15.6614 18.04 14.4534C17.558 13.2778 17.068 13.4382 16.704 13.4179C16.356 13.4016 15.96 13.3976 15.564 13.3976C15.168 13.3976 14.524 13.5478 13.98 14.1529C13.434 14.7559 11.9 16.2157 11.9 19.1861C11.9 22.1544 14.028 25.0233 14.326 25.4274C14.624 25.8294 18.516 31.9244 24.478 34.5375C25.898 35.1588 27.004 35.5303 27.866 35.8065C29.29 36.2673 30.586 36.2024 31.61 36.046C32.75 35.8735 35.126 34.5862 35.622 33.1772C36.116 31.7681 36.116 30.5601 35.968 30.3083C35.82 30.0565 35.424 29.9063 34.828 29.6038H34.83ZM23.986 44.6344H23.978C20.4369 44.635 16.9607 43.6687 13.914 41.8366L13.194 41.4021L5.71 43.3959L7.708 35.9892L7.238 35.2298C5.25828 32.0307 4.21059 28.3283 4.216 24.5503C4.22 13.4849 13.088 4.48236 23.994 4.48236C29.274 4.48236 34.238 6.57361 37.97 10.3663C39.8108 12.2273 41.2697 14.4403 42.2626 16.8774C43.2554 19.3145 43.7623 21.9272 43.754 24.5645C43.75 35.6298 34.882 44.6344 23.986 44.6344ZM40.81 7.48523C38.6064 5.23343 35.9845 3.44798 33.0962 2.23234C30.2079 1.0167 27.1107 0.395044 23.984 0.403404C10.876 0.403404 0.204 11.2353 0.2 24.5482C0.193926 28.785 1.28875 32.9485 3.374 36.6186L0 49.1316L12.608 45.7734C16.0957 47.7025 20.0042 48.7133 23.976 48.7133H23.986C37.094 48.7133 47.766 37.8815 47.77 24.5665C47.7797 21.3936 47.1695 18.2503 45.9749 15.3184C44.7802 12.3864 43.0247 9.72403 40.81 7.48523Z" fill="#4EA43D"/>
</svg>
