<svg xmlns="http://www.w3.org/2000/svg" xmlns:xlink="http://www.w3.org/1999/xlink" width="793" zoomAndPan="magnify" viewBox="0 0 594.95996 842.24997" height="1122" preserveAspectRatio="xMidYMid meet" version="1.0"><defs><clipPath id="id1"><path d="M 0.246094 0 L 594.675781 0 L 594.675781 841.5 L 0.246094 841.5 Z M 0.246094 0 " clip-rule="nonzero"/></clipPath><clipPath id="id2"><path d="M 0.246094 0 L 594.675781 0 L 594.675781 841 L 0.246094 841 Z M 0.246094 0 " clip-rule="nonzero"/></clipPath><clipPath id="id3"><path d="M 0.246094 0 L 594.675781 0 L 594.675781 840.792969 L 0.246094 840.792969 Z M 0.246094 0 " clip-rule="nonzero"/></clipPath><clipPath id="id4"><path d="M 0.246094 0 L 412.03125 0 L 412.03125 411.785156 L 0.246094 411.785156 Z M 0.246094 0 " clip-rule="nonzero"/></clipPath></defs><g clip-path="url(#id1)"><path fill="#ffffff" d="M 0.246094 0 L 594.714844 0 L 594.714844 847.53125 L 0.246094 847.53125 Z M 0.246094 0 " fill-opacity="1" fill-rule="nonzero"/></g><g clip-path="url(#id2)"><path fill="#ffffff" d="M 0.246094 0 L 594.714844 0 L 594.714844 840.792969 L 0.246094 840.792969 Z M 0.246094 0 " fill-opacity="1" fill-rule="nonzero"/></g><g clip-path="url(#id3)"><path fill="#ffffff" d="M 0.246094 0 L 594.714844 0 L 594.714844 840.792969 L 0.246094 840.792969 Z M 0.246094 0 " fill-opacity="1" fill-rule="nonzero"/></g><path fill="#000000" d="M 214.71875 85.789062 C 212.269531 85.785156 209.824219 85.863281 207.382812 86.019531 C 204.941406 86.175781 202.507812 86.414062 200.082031 86.730469 C 197.65625 87.050781 195.242188 87.449219 192.839844 87.925781 C 190.441406 88.402344 188.058594 88.957031 185.695312 89.589844 C 183.332031 90.226562 180.992188 90.9375 178.675781 91.722656 C 176.359375 92.511719 174.070312 93.375 171.8125 94.316406 C 169.550781 95.253906 167.324219 96.265625 165.132812 97.351562 C 162.9375 98.4375 160.785156 99.59375 158.667969 100.824219 C 156.550781 102.050781 154.476562 103.347656 152.445312 104.710938 C 150.414062 106.078125 148.429688 107.507812 146.492188 109.003906 C 144.558594 110.5 142.671875 112.054688 140.835938 113.675781 C 139.003906 115.296875 137.222656 116.972656 135.5 118.710938 C 133.777344 120.449219 132.113281 122.238281 130.507812 124.085938 C 128.902344 125.933594 127.359375 127.832031 125.878906 129.78125 C 124.398438 131.726562 122.984375 133.722656 121.632812 135.765625 C 120.285156 137.808594 119.003906 139.890625 117.792969 142.015625 C 116.582031 144.144531 115.441406 146.308594 114.375 148.507812 C 113.304688 150.710938 112.308594 152.945312 111.386719 155.210938 C 110.46875 157.476562 109.621094 159.773438 108.851562 162.09375 C 108.082031 164.417969 107.386719 166.761719 106.773438 169.132812 C 106.15625 171.5 105.621094 173.886719 105.160156 176.289062 C 104.703125 178.695312 104.324219 181.109375 104.027344 183.539062 C 103.726562 185.96875 103.507812 188.402344 103.371094 190.847656 C 103.230469 193.289062 103.171875 195.734375 103.195312 198.179688 C 103.21875 200.628906 103.324219 203.070312 103.507812 205.511719 C 103.691406 207.953125 103.953125 210.382812 104.296875 212.804688 C 104.644531 215.230469 105.066406 217.636719 105.570312 220.03125 C 106.074219 222.425781 106.652344 224.804688 107.3125 227.160156 C 107.972656 229.515625 108.710938 231.847656 109.523438 234.15625 C 110.335938 236.464844 111.226562 238.742188 112.1875 240.992188 C 113.152344 243.242188 114.1875 245.457031 115.296875 247.636719 C 116.40625 249.820312 117.589844 251.960938 118.839844 254.0625 C 119.4375 255.078125 119.8125 256.171875 119.960938 257.34375 C 120.113281 258.511719 120.023438 259.664062 119.695312 260.796875 L 107.085938 304.929688 L 151.214844 292.316406 C 152.351562 291.992188 153.5 291.902344 154.671875 292.050781 C 155.84375 292.199219 156.933594 292.574219 157.949219 293.175781 C 159.789062 294.261719 161.65625 295.296875 163.550781 296.277344 C 165.449219 297.257812 167.371094 298.183594 169.320312 299.054688 C 171.269531 299.925781 173.242188 300.738281 175.242188 301.496094 C 177.238281 302.253906 179.253906 302.953125 181.289062 303.59375 C 183.328125 304.234375 185.378906 304.816406 187.449219 305.339844 C 189.519531 305.863281 191.605469 306.328125 193.703125 306.730469 C 195.796875 307.132812 197.90625 307.476562 200.023438 307.757812 C 202.136719 308.039062 204.261719 308.261719 206.390625 308.421875 C 208.519531 308.582031 210.652344 308.683594 212.785156 308.71875 C 214.921875 308.757812 217.054688 308.734375 219.1875 308.648438 C 221.324219 308.5625 223.453125 308.417969 225.578125 308.210938 C 227.703125 308.003906 229.820312 307.734375 231.929688 307.40625 C 234.039062 307.078125 236.136719 306.6875 238.226562 306.238281 C 240.3125 305.789062 242.386719 305.28125 244.445312 304.710938 C 246.503906 304.144531 248.542969 303.515625 250.566406 302.832031 C 252.585938 302.144531 254.585938 301.402344 256.566406 300.601562 C 258.546875 299.800781 260.5 298.941406 262.429688 298.03125 C 264.363281 297.117188 266.265625 296.148438 268.136719 295.125 C 270.011719 294.105469 271.855469 293.027344 273.667969 291.898438 C 275.480469 290.773438 277.261719 289.59375 279.007812 288.363281 C 280.75 287.132812 282.460938 285.851562 284.132812 284.523438 C 285.800781 283.195312 287.433594 281.816406 289.027344 280.394531 C 290.617188 278.972656 292.167969 277.507812 293.675781 275.996094 C 295.183594 274.484375 296.648438 272.929688 298.066406 271.332031 C 299.488281 269.738281 300.859375 268.101562 302.183594 266.425781 C 303.507812 264.753906 304.785156 263.042969 306.011719 261.292969 C 307.238281 259.546875 308.410156 257.765625 309.535156 255.949219 C 310.660156 254.132812 311.730469 252.289062 312.75 250.410156 C 313.765625 248.535156 314.730469 246.628906 315.640625 244.695312 C 316.546875 242.765625 317.398438 240.808594 318.195312 238.824219 C 318.992188 236.84375 319.730469 234.84375 320.414062 232.820312 C 321.09375 230.792969 321.714844 228.753906 322.28125 226.695312 C 322.84375 224.632812 323.347656 222.558594 323.792969 220.472656 C 324.238281 218.382812 324.621094 216.285156 324.945312 214.171875 C 325.269531 212.0625 325.53125 209.945312 325.734375 207.820312 C 325.9375 205.691406 326.078125 203.5625 326.15625 201.429688 C 326.238281 199.296875 326.253906 197.160156 326.210938 195.027344 C 326.167969 192.890625 326.066406 190.761719 325.898438 188.632812 C 325.734375 186.503906 325.507812 184.378906 325.222656 182.265625 C 324.933594 180.148438 324.585938 178.042969 324.175781 175.945312 C 323.769531 173.851562 323.300781 171.769531 322.773438 169.699219 C 322.246094 167.628906 321.65625 165.578125 321.011719 163.542969 C 320.367188 161.507812 319.664062 159.492188 318.902344 157.496094 C 318.140625 155.503906 317.320312 153.53125 316.445312 151.582031 C 315.570312 149.636719 314.640625 147.714844 313.65625 145.820312 C 312.667969 143.925781 311.628906 142.0625 310.539062 140.226562 C 309.445312 138.394531 308.300781 136.589844 307.105469 134.820312 C 305.910156 133.054688 304.664062 131.320312 303.367188 129.621094 C 302.070312 127.925781 300.730469 126.265625 299.339844 124.648438 C 297.945312 123.027344 296.511719 121.449219 295.027344 119.910156 C 293.546875 118.371094 292.023438 116.878906 290.457031 115.429688 C 288.886719 113.980469 287.28125 112.574219 285.632812 111.21875 C 283.984375 109.859375 282.296875 108.550781 280.574219 107.289062 C 278.851562 106.03125 277.09375 104.820312 275.300781 103.660156 C 273.507812 102.5 271.683594 101.394531 269.824219 100.339844 C 267.96875 99.285156 266.082031 98.285156 264.167969 97.335938 C 262.253906 96.390625 260.316406 95.5 258.351562 94.664062 C 256.386719 93.828125 254.398438 93.050781 252.386719 92.332031 C 250.378906 91.609375 248.347656 90.949219 246.300781 90.34375 C 244.253906 89.738281 242.1875 89.195312 240.109375 88.710938 C 238.03125 88.222656 235.9375 87.796875 233.835938 87.433594 C 231.730469 87.066406 229.617188 86.761719 227.496094 86.519531 C 225.375 86.273438 223.25 86.09375 221.117188 85.96875 C 218.984375 85.847656 216.851562 85.789062 214.71875 85.789062 Z M 251.359375 274.480469 C 250.027344 274.480469 218.15625 274.027344 177.785156 234.359375 C 138.003906 193.875 137.550781 162.003906 137.550781 160.675781 C 137.550781 152.953125 163.414062 120.148438 174.042969 120.148438 C 175.140625 120.203125 176.214844 120.375 177.269531 120.671875 C 178.324219 120.964844 179.335938 121.371094 180.296875 121.890625 C 181.261719 122.410156 182.160156 123.03125 182.984375 123.75 C 183.8125 124.46875 184.550781 125.269531 185.195312 126.152344 C 185.429688 126.425781 207.621094 156.574219 205.847656 166.722656 C 204.9375 171.871094 201.617188 174.667969 196.109375 179.28125 C 195.199219 180.054688 194.394531 180.730469 193.707031 181.332031 C 194.265625 182.808594 195.019531 184.617188 196.023438 186.683594 C 197.5625 189.851562 199.355469 192.871094 201.398438 195.738281 C 203.441406 198.605469 205.707031 201.285156 208.199219 203.777344 C 210.6875 206.265625 213.367188 208.535156 216.234375 210.578125 C 219.101562 212.621094 222.121094 214.414062 225.285156 215.957031 C 227.355469 216.960938 229.171875 217.714844 230.648438 218.273438 C 231.238281 217.585938 231.925781 216.789062 232.699219 215.871094 C 237.3125 210.363281 240.101562 207.042969 245.25 206.132812 C 255.339844 204.296875 285.570312 226.550781 285.828125 226.78125 C 286.710938 227.429688 287.511719 228.167969 288.230469 228.996094 C 288.949219 229.820312 289.570312 230.714844 290.089844 231.679688 C 290.609375 232.644531 291.015625 233.65625 291.308594 234.710938 C 291.605469 235.765625 291.777344 236.839844 291.832031 237.9375 C 291.882812 248.617188 259.042969 274.480469 251.359375 274.480469 Z M 251.359375 274.480469 " fill-opacity="1" fill-rule="nonzero"/><path fill="#000000" d="M 245.859375 226.929688 C 243.601562 229.902344 241.046875 232.589844 238.1875 234.992188 L 235.273438 237.085938 L 231.730469 236.46875 C 226.882812 235.363281 222.246094 233.679688 217.824219 231.414062 C 213.796875 229.457031 209.960938 227.175781 206.3125 224.578125 C 202.667969 221.980469 199.261719 219.097656 196.09375 215.933594 C 192.929688 212.769531 190.046875 209.363281 187.445312 205.714844 C 184.847656 202.070312 182.566406 198.234375 180.605469 194.210938 C 178.347656 189.78125 176.667969 185.148438 175.5625 180.300781 L 174.945312 176.757812 L 177.039062 173.84375 C 179.441406 170.984375 182.128906 168.429688 185.101562 166.171875 C 185.960938 165.453125 187.144531 164.457031 188.097656 163.597656 C 183.808594 155.148438 178.980469 147.023438 173.605469 139.21875 C 166.621094 146.199219 160.363281 153.78125 154.835938 161.96875 C 155.558594 167.769531 160.265625 191.996094 189.914062 222.210938 C 219.847656 251.617188 244.003906 256.414062 250.0625 257.167969 C 258.238281 251.640625 265.816406 245.386719 272.796875 238.40625 C 264.988281 233.035156 256.863281 228.203125 248.414062 223.910156 C 247.574219 224.886719 246.578125 226.078125 245.859375 226.929688 Z M 245.859375 226.929688 " fill-opacity="1" fill-rule="nonzero"/><g clip-path="url(#id4)"><path fill="#000000" d="M 206.136719 0 C 202.769531 0 199.402344 0.0820312 196.035156 0.246094 C 192.667969 0.414062 189.308594 0.660156 185.957031 0.992188 C 182.605469 1.320312 179.261719 1.734375 175.925781 2.226562 C 172.59375 2.722656 169.273438 3.296875 165.96875 3.957031 C 162.664062 4.613281 159.378906 5.351562 156.109375 6.171875 C 152.839844 6.988281 149.59375 7.886719 146.371094 8.867188 C 143.144531 9.84375 139.949219 10.902344 136.773438 12.035156 C 133.601562 13.171875 130.460938 14.382812 127.347656 15.671875 C 124.234375 16.960938 121.152344 18.328125 118.105469 19.769531 C 115.0625 21.207031 112.050781 22.722656 109.082031 24.3125 C 106.109375 25.898438 103.179688 27.558594 100.289062 29.292969 C 97.398438 31.023438 94.550781 32.828125 91.75 34.699219 C 88.949219 36.570312 86.195312 38.511719 83.488281 40.519531 C 80.78125 42.527344 78.125 44.597656 75.519531 46.734375 C 72.914062 48.875 70.367188 51.074219 67.867188 53.335938 C 65.371094 55.597656 62.933594 57.921875 60.550781 60.304688 C 58.167969 62.6875 55.84375 65.128906 53.582031 67.625 C 51.316406 70.121094 49.117188 72.671875 46.980469 75.277344 C 44.84375 77.878906 42.769531 80.535156 40.761719 83.242188 C 38.753906 85.949219 36.816406 88.703125 34.945312 91.503906 C 33.070312 94.308594 31.269531 97.152344 29.539062 100.042969 C 27.804688 102.933594 26.144531 105.863281 24.554688 108.835938 C 22.96875 111.808594 21.453125 114.816406 20.011719 117.863281 C 18.570312 120.910156 17.207031 123.988281 15.917969 127.101562 C 14.628906 130.214844 13.414062 133.355469 12.28125 136.53125 C 11.144531 139.703125 10.089844 142.902344 9.109375 146.125 C 8.132812 149.351562 7.234375 152.597656 6.414062 155.867188 C 5.597656 159.132812 4.859375 162.421875 4.199219 165.726562 C 3.542969 169.03125 2.96875 172.347656 2.472656 175.683594 C 1.980469 179.015625 1.566406 182.359375 1.234375 185.710938 C 0.90625 189.066406 0.65625 192.425781 0.492188 195.789062 C 0.328125 199.15625 0.246094 202.523438 0.246094 205.894531 C 0.246094 209.261719 0.328125 212.628906 0.492188 215.996094 C 0.65625 219.363281 0.90625 222.722656 1.234375 226.074219 C 1.566406 229.429688 1.980469 232.769531 2.472656 236.105469 C 2.96875 239.4375 3.542969 242.757812 4.199219 246.0625 C 4.859375 249.367188 5.597656 252.652344 6.414062 255.921875 C 7.234375 259.191406 8.132812 262.4375 9.109375 265.660156 C 10.089844 268.886719 11.144531 272.085938 12.28125 275.257812 C 13.414062 278.429688 14.628906 281.574219 15.917969 284.683594 C 17.207031 287.796875 18.570312 290.878906 20.011719 293.925781 C 21.453125 296.96875 22.96875 299.980469 24.554688 302.949219 C 26.144531 305.921875 27.804688 308.855469 29.539062 311.742188 C 31.269531 314.632812 33.070312 317.480469 34.945312 320.28125 C 36.816406 323.082031 38.753906 325.835938 40.761719 328.542969 C 42.769531 331.25 44.84375 333.90625 46.980469 336.511719 C 49.117188 339.117188 51.316406 341.667969 53.582031 344.164062 C 55.84375 346.660156 58.167969 349.097656 60.550781 351.480469 C 62.933594 353.863281 65.371094 356.1875 67.867188 358.449219 C 70.363281 360.714844 72.914062 362.914062 75.519531 365.050781 C 78.125 367.1875 80.78125 369.261719 83.488281 371.269531 C 86.195312 373.277344 88.949219 375.214844 91.75 377.085938 C 94.550781 378.960938 97.398438 380.761719 100.289062 382.496094 C 103.179688 384.226562 106.109375 385.886719 109.082031 387.476562 C 112.050781 389.0625 115.0625 390.578125 118.105469 392.019531 C 121.152344 393.460938 124.234375 394.824219 127.347656 396.113281 C 130.460938 397.402344 133.601562 398.617188 136.773438 399.75 C 139.949219 400.886719 143.144531 401.941406 146.371094 402.921875 C 149.59375 403.898438 152.839844 404.796875 156.109375 405.617188 C 159.378906 406.433594 162.664062 407.171875 165.96875 407.832031 C 169.273438 408.488281 172.59375 409.0625 175.925781 409.558594 C 179.261719 410.054688 182.605469 410.464844 185.957031 410.796875 C 189.308594 411.125 192.667969 411.375 196.035156 411.539062 C 199.402344 411.703125 202.769531 411.785156 206.136719 411.785156 C 209.507812 411.785156 212.875 411.703125 216.242188 411.539062 C 219.605469 411.375 222.964844 411.125 226.320312 410.796875 C 229.671875 410.464844 233.015625 410.054688 236.347656 409.558594 C 239.683594 409.0625 243 408.488281 246.304688 407.832031 C 249.609375 407.171875 252.898438 406.433594 256.167969 405.617188 C 259.433594 404.796875 262.679688 403.898438 265.90625 402.921875 C 269.128906 401.941406 272.328125 400.886719 275.5 399.75 C 278.675781 398.617188 281.816406 397.402344 284.929688 396.113281 C 288.042969 394.824219 291.121094 393.460938 294.167969 392.019531 C 297.214844 390.578125 300.222656 389.0625 303.195312 387.476562 C 306.167969 385.886719 309.097656 384.226562 311.988281 382.496094 C 314.878906 380.761719 317.726562 378.960938 320.527344 377.085938 C 323.328125 375.214844 326.082031 373.277344 328.789062 371.269531 C 331.496094 369.261719 334.152344 367.1875 336.753906 365.050781 C 339.359375 362.914062 341.910156 360.714844 344.40625 358.449219 C 346.90625 356.1875 349.34375 353.863281 351.726562 351.480469 C 354.109375 349.097656 356.433594 346.660156 358.695312 344.164062 C 360.957031 341.667969 363.160156 339.117188 365.296875 336.511719 C 367.433594 333.90625 369.507812 331.25 371.511719 328.542969 C 373.519531 325.835938 375.460938 323.082031 377.332031 320.28125 C 379.203125 317.480469 381.007812 314.632812 382.738281 311.742188 C 384.472656 308.855469 386.132812 305.921875 387.71875 302.949219 C 389.308594 299.980469 390.824219 296.96875 392.261719 293.925781 C 393.703125 290.878906 395.070312 287.796875 396.359375 284.683594 C 397.648438 281.574219 398.859375 278.429688 399.996094 275.257812 C 401.132812 272.085938 402.1875 268.886719 403.164062 265.660156 C 404.144531 262.4375 405.042969 259.191406 405.859375 255.921875 C 406.679688 252.652344 407.417969 249.367188 408.074219 246.0625 C 408.734375 242.757812 409.308594 239.4375 409.804688 236.105469 C 410.296875 232.769531 410.710938 229.429688 411.039062 226.074219 C 411.371094 222.722656 411.617188 219.363281 411.785156 215.996094 C 411.949219 212.628906 412.03125 209.261719 412.03125 205.894531 C 412.027344 202.523438 411.941406 199.160156 411.773438 195.792969 C 411.601562 192.429688 411.351562 189.070312 411.019531 185.71875 C 410.683594 182.367188 410.269531 179.027344 409.773438 175.695312 C 409.273438 172.363281 408.695312 169.046875 408.035156 165.742188 C 407.375 162.4375 406.636719 159.152344 405.8125 155.886719 C 404.992188 152.621094 404.09375 149.375 403.113281 146.152344 C 402.132812 142.929688 401.074219 139.734375 399.9375 136.5625 C 398.800781 133.390625 397.585938 130.25 396.292969 127.136719 C 395.003906 124.027344 393.636719 120.949219 392.195312 117.90625 C 390.753906 114.859375 389.238281 111.851562 387.648438 108.882812 C 386.058594 105.914062 384.398438 102.984375 382.667969 100.09375 C 380.933594 97.207031 379.128906 94.363281 377.257812 91.5625 C 375.386719 88.761719 373.445312 86.007812 371.4375 83.304688 C 369.433594 80.597656 367.359375 77.945312 365.222656 75.339844 C 363.085938 72.738281 360.886719 70.1875 358.621094 67.691406 C 356.359375 65.195312 354.039062 62.757812 351.65625 60.375 C 349.273438 57.992188 346.835938 55.671875 344.339844 53.410156 C 341.84375 51.144531 339.292969 48.945312 336.691406 46.808594 C 334.085938 44.671875 331.433594 42.597656 328.726562 40.59375 C 326.023438 38.585938 323.269531 36.644531 320.46875 34.773438 C 317.667969 32.902344 314.824219 31.097656 311.9375 29.367188 C 309.046875 27.632812 306.117188 25.972656 303.148438 24.382812 C 300.179688 22.792969 297.171875 21.277344 294.125 19.835938 C 291.082031 18.394531 288.003906 17.027344 284.894531 15.738281 C 281.78125 14.445312 278.640625 13.230469 275.46875 12.09375 C 272.296875 10.957031 269.101562 9.898438 265.878906 8.917969 C 262.65625 7.9375 259.410156 7.039062 256.144531 6.21875 C 252.878906 5.394531 249.59375 4.65625 246.289062 3.996094 C 242.984375 3.335938 239.667969 2.757812 236.335938 2.257812 C 233.003906 1.761719 229.664062 1.347656 226.3125 1.011719 C 222.960938 0.679688 219.601562 0.429688 216.238281 0.257812 C 212.871094 0.0898438 209.507812 0.00390625 206.136719 0 Z M 214.71875 325.996094 C 209.292969 325.992188 203.890625 325.644531 198.507812 324.953125 C 193.128906 324.261719 187.8125 323.234375 182.5625 321.867188 C 177.3125 320.5 172.167969 318.808594 167.132812 316.792969 C 162.097656 314.773438 157.210938 312.445312 152.46875 309.808594 L 96.972656 325.664062 C 96.238281 325.875 95.488281 325.984375 94.722656 325.992188 C 93.957031 326 93.203125 325.910156 92.464844 325.71875 C 91.722656 325.527344 91.023438 325.238281 90.359375 324.859375 C 89.695312 324.480469 89.09375 324.019531 88.550781 323.480469 C 88.011719 322.9375 87.550781 322.335938 87.171875 321.671875 C 86.792969 321.007812 86.503906 320.308594 86.3125 319.566406 C 86.121094 318.828125 86.03125 318.074219 86.039062 317.308594 C 86.046875 316.546875 86.160156 315.796875 86.367188 315.058594 L 102.222656 259.5625 C 101.09375 257.523438 100.023438 255.453125 99.011719 253.355469 C 97.996094 251.257812 97.042969 249.132812 96.144531 246.984375 C 95.246094 244.832031 94.40625 242.660156 93.625 240.464844 C 92.84375 238.269531 92.125 236.054688 91.464844 233.820312 C 90.804688 231.582031 90.207031 229.332031 89.667969 227.066406 C 89.128906 224.796875 88.65625 222.515625 88.242188 220.222656 C 87.828125 217.929688 87.476562 215.628906 87.1875 213.316406 C 86.898438 211.003906 86.675781 208.683594 86.511719 206.359375 C 86.347656 204.035156 86.25 201.707031 86.214844 199.378906 C 86.179688 197.046875 86.207031 194.71875 86.296875 192.390625 C 86.386719 190.0625 86.542969 187.738281 86.757812 185.417969 C 86.976562 183.097656 87.257812 180.785156 87.597656 178.480469 C 87.941406 176.175781 88.347656 173.878906 88.816406 171.597656 C 89.28125 169.316406 89.8125 167.046875 90.402344 164.792969 C 90.992188 162.539062 91.644531 160.300781 92.359375 158.082031 C 93.070312 155.863281 93.84375 153.667969 94.675781 151.488281 C 95.507812 149.3125 96.398438 147.160156 97.34375 145.03125 C 98.292969 142.902344 99.300781 140.800781 100.363281 138.730469 C 101.425781 136.65625 102.546875 134.613281 103.71875 132.597656 C 104.894531 130.585938 106.121094 128.605469 107.402344 126.660156 C 108.6875 124.714844 110.019531 122.804688 111.40625 120.929688 C 112.789062 119.058594 114.226562 117.222656 115.710938 115.429688 C 117.199219 113.632812 118.730469 111.878906 120.3125 110.167969 C 121.890625 108.453125 123.519531 106.785156 125.191406 105.164062 C 126.859375 103.539062 128.574219 101.960938 130.332031 100.429688 C 132.089844 98.898438 133.886719 97.417969 135.726562 95.984375 C 137.5625 94.554688 139.4375 93.171875 141.351562 91.839844 C 143.261719 90.507812 145.210938 89.230469 147.195312 88.007812 C 149.175781 86.78125 151.191406 85.609375 153.234375 84.496094 C 155.28125 83.378906 157.355469 82.320312 159.460938 81.316406 C 161.5625 80.316406 163.691406 79.371094 165.847656 78.484375 C 168.003906 77.597656 170.179688 76.769531 172.378906 76 C 174.578125 75.230469 176.796875 74.523438 179.039062 73.875 C 181.277344 73.226562 183.53125 72.640625 185.800781 72.113281 C 188.070312 71.589844 190.351562 71.125 192.648438 70.722656 C 194.945312 70.324219 197.25 69.984375 199.5625 69.707031 C 201.875 69.433594 204.195312 69.21875 206.523438 69.070312 C 208.847656 68.917969 211.175781 68.832031 213.503906 68.808594 C 215.835938 68.785156 218.164062 68.824219 220.492188 68.929688 C 222.820312 69.03125 225.144531 69.199219 227.464844 69.429688 C 229.78125 69.65625 232.09375 69.949219 234.394531 70.304688 C 236.699219 70.660156 238.992188 71.078125 241.273438 71.558594 C 243.550781 72.039062 245.816406 72.578125 248.070312 73.179688 C 250.320312 73.785156 252.550781 74.449219 254.765625 75.171875 C 256.980469 75.898438 259.175781 76.679688 261.347656 77.523438 C 263.519531 78.367188 265.667969 79.269531 267.792969 80.230469 C 269.914062 81.191406 272.011719 82.207031 274.078125 83.28125 C 276.144531 84.355469 278.183594 85.484375 280.191406 86.671875 C 282.195312 87.855469 284.167969 89.09375 286.109375 90.386719 C 288.046875 91.679688 289.949219 93.023438 291.816406 94.417969 C 293.683594 95.8125 295.507812 97.257812 297.296875 98.753906 C 299.085938 100.25 300.828125 101.792969 302.535156 103.382812 C 304.238281 104.972656 305.898438 106.605469 307.511719 108.285156 C 309.125 109.964844 310.695312 111.6875 312.214844 113.453125 C 313.738281 115.21875 315.207031 117.023438 316.632812 118.871094 C 318.054688 120.714844 319.425781 122.597656 320.746094 124.519531 C 322.066406 126.4375 323.335938 128.390625 324.550781 130.382812 C 325.765625 132.371094 326.925781 134.390625 328.027344 136.441406 C 329.132812 138.492188 330.179688 140.574219 331.171875 142.683594 C 332.164062 144.792969 333.097656 146.925781 333.972656 149.085938 C 334.847656 151.246094 335.664062 153.425781 336.421875 155.632812 C 337.179688 157.835938 337.875 160.058594 338.511719 162.300781 C 339.148438 164.542969 339.722656 166.800781 340.234375 169.070312 C 340.75 171.34375 341.199219 173.628906 341.589844 175.929688 C 341.976562 178.226562 342.304688 180.53125 342.570312 182.847656 C 342.832031 185.164062 343.03125 187.484375 343.171875 189.808594 C 343.308594 192.136719 343.382812 194.464844 343.394531 196.792969 C 343.402344 199.125 343.351562 201.453125 343.238281 203.78125 C 343.121094 206.109375 342.941406 208.429688 342.699219 210.75 C 342.457031 213.066406 342.152344 215.375 341.785156 217.675781 C 341.417969 219.976562 340.988281 222.269531 340.496094 224.546875 C 340.003906 226.824219 339.453125 229.085938 338.835938 231.332031 C 338.222656 233.582031 337.546875 235.8125 336.808594 238.023438 C 336.074219 240.234375 335.277344 242.421875 334.421875 244.589844 C 333.570312 246.757812 332.65625 248.902344 331.683594 251.019531 C 330.710938 253.136719 329.683594 255.226562 328.597656 257.289062 C 327.511719 259.351562 326.371094 261.382812 325.175781 263.382812 C 323.980469 265.382812 322.730469 267.347656 321.429688 269.28125 C 320.128906 271.214844 318.773438 273.109375 317.367188 274.96875 C 315.960938 276.828125 314.507812 278.644531 313.003906 280.425781 C 311.496094 282.203125 309.945312 283.941406 308.347656 285.636719 C 306.75 287.332031 305.105469 288.984375 303.414062 290.589844 C 301.726562 292.195312 299.996094 293.753906 298.222656 295.265625 C 296.449219 296.777344 294.636719 298.238281 292.78125 299.652344 C 290.929688 301.066406 289.039062 302.425781 287.113281 303.738281 C 285.1875 305.046875 283.226562 306.304688 281.230469 307.507812 C 279.234375 308.714844 277.207031 309.863281 275.152344 310.957031 C 273.09375 312.050781 271.007812 313.085938 268.894531 314.066406 C 266.777344 315.046875 264.640625 315.96875 262.476562 316.832031 C 260.3125 317.695312 258.125 318.5 255.917969 319.246094 C 253.710938 319.992188 251.484375 320.675781 249.238281 321.300781 C 246.992188 321.925781 244.730469 322.488281 242.457031 322.988281 C 240.179688 323.488281 237.890625 323.929688 235.59375 324.304688 C 233.292969 324.683594 230.984375 324.996094 228.667969 325.246094 C 226.351562 325.5 224.03125 325.6875 221.703125 325.8125 C 219.375 325.9375 217.046875 326 214.71875 325.996094 Z M 214.71875 325.996094 " fill-opacity="1" fill-rule="nonzero"/></g></svg>