<svg width="550" height="550" viewBox="0 0 550 550" fill="none" xmlns="http://www.w3.org/2000/svg">
<path d="M274.776 0.223877C123.208 0.223877 0 123.427 0 275C0 321.536 11.5208 367.187 34.1198 407.516L10.6406 493.495C6.65104 507.234 10.6354 521.417 20.8281 531.609C31.0208 541.802 45.2083 545.792 58.9479 542.25L148.469 518.755C187.469 539.141 230.901 549.776 275.219 549.776C426.792 549.776 550 426.573 550 275C550 201.432 521.635 132.734 469.781 80.8801C417.484 29.026 348.349 0.223877 274.776 0.223877ZM274.776 26.8124C341.255 26.8124 403.745 52.5208 450.281 99.4999C497.26 146.474 523.406 208.963 522.964 275C522.964 411.948 411.724 523.187 274.776 523.187C233.563 523.187 192.344 512.547 156 493.047C154.229 492.161 152.016 491.281 149.802 491.281C148.474 491.281 147.583 491.281 146.255 491.724L51.849 516.536C45.2031 518.312 40.776 514.76 39.0052 512.99C37.2292 511.219 33.6823 506.792 35.4531 500.146L60.2708 408.838C61.1563 405.297 60.7188 401.755 58.9479 398.651C37.6771 361.422 26.5938 318.432 26.5938 275C26.5938 138.052 137.833 26.8124 274.776 26.8124ZM274.776 66.6978C159.99 66.6978 66.4792 159.771 66.4792 275C66.4792 311.786 76.2344 347.682 94.401 379.151C101.495 391.557 103.266 406.182 99.7188 419.922L86.8646 466.453L136.505 453.609C140.938 452.281 145.37 451.833 149.802 451.833C158.667 451.833 167.526 454.052 175.063 458.484C205.641 474.437 239.766 483.302 274.776 483.302C389.563 483.302 483.078 389.786 483.078 275C483.078 219.156 461.359 166.859 421.917 127.411C382.911 88.4114 330.62 66.6978 274.776 66.6978ZM182.151 154.005H194.563C199.438 154.005 204.307 154.448 209.182 165.083C214.943 177.937 227.797 210.292 229.125 213.396C230.901 216.495 231.792 220.484 229.578 224.917C227.359 229.349 226.474 232.005 222.927 235.995C219.828 239.984 215.833 244.422 213.172 247.526C210.073 250.63 206.526 254.172 210.516 260.823C214.505 267.469 227.354 288.74 246.854 306.021C271.672 328.182 292.948 335.276 299.594 338.38C306.245 341.484 309.792 341.036 313.781 336.604C317.771 332.172 330.177 317.547 334.609 310.896C339.042 304.25 343.474 305.583 349.24 307.797C355.443 310.016 387.349 325.963 394 329.068C400.646 332.167 405.073 333.948 406.401 336.604C408.177 340.151 408.182 353 402.865 368.51C397.542 383.578 370.953 398.651 358.542 399.536C346.578 400.422 335.49 404.854 280.094 383.141C213.615 356.99 171.516 288.74 168.411 284.307C165.313 279.875 141.823 248.854 141.823 216.5C141.823 184.151 158.661 168.635 164.865 161.984C171.068 155.338 177.719 154.005 182.151 154.005Z" fill="#4EA43D"/>
</svg>
