<svg width="48" height="49" viewBox="0 0 48 49" fill="none" xmlns="http://www.w3.org/2000/svg">
<path d="M23.9805 0.223877C10.7527 0.223877 0 10.9849 0 24.2239C0 28.2886 1.00545 32.2759 2.97773 35.7983L0.928636 43.3081C0.580455 44.5081 0.928182 45.7469 1.81773 46.6371C2.70727 47.5274 3.94545 47.8759 5.14455 47.5665L12.9573 45.5144C16.3609 47.2949 20.1514 48.2239 24.0191 48.2239C37.2473 48.2239 48 37.4628 48 24.2239C48 17.7982 45.5245 11.7978 40.9991 7.26871C36.435 2.73956 30.4014 0.223877 23.9805 0.223877ZM23.9805 2.54622C29.7823 2.54622 35.2359 4.79169 39.2973 8.89503C43.3973 12.9979 45.6791 18.456 45.6405 24.2239C45.6405 36.1854 35.9323 45.9015 23.9805 45.9015C20.3836 45.9015 16.7864 44.9721 13.6145 43.2689C13.46 43.1916 13.2668 43.1147 13.0736 43.1147C12.9577 43.1147 12.88 43.1147 12.7641 43.1534L4.525 45.3206C3.945 45.4757 3.55864 45.1655 3.40409 45.0108C3.24909 44.8561 2.93955 44.4695 3.09409 43.889L5.26 35.9139C5.33727 35.6045 5.29909 35.2952 5.14455 35.024C3.28818 31.7723 2.32091 28.0174 2.32091 24.2239C2.32091 12.2623 12.0291 2.54622 23.9805 2.54622ZM23.9805 6.02997C13.9627 6.02997 5.80182 14.1593 5.80182 24.2239C5.80182 27.4369 6.65318 30.5722 8.23864 33.3208C8.85773 34.4044 9.01227 35.6818 8.70273 36.8819L7.58091 40.9461L11.9132 39.8243C12.3 39.7083 12.6868 39.6692 13.0736 39.6692C13.8473 39.6692 14.6205 39.863 15.2782 40.2501C17.9468 41.6435 20.925 42.4178 23.9805 42.4178C33.9982 42.4178 42.1595 34.2498 42.1595 24.2239C42.1595 19.3463 40.2641 14.7785 36.8218 11.3329C33.4177 7.92651 28.8541 6.02997 23.9805 6.02997ZM15.8968 13.6557H16.98C17.4055 13.6557 17.8305 13.6944 18.2559 14.6233C18.7586 15.7461 19.8805 18.572 19.9964 18.8431C20.1514 19.1138 20.2291 19.4623 20.0359 19.8494C19.8423 20.2365 19.765 20.4685 19.4555 20.817C19.185 21.1655 18.8364 21.5531 18.6041 21.8242C18.3336 22.0953 18.0241 22.4047 18.3723 22.9856C18.7205 23.5661 19.8418 25.4239 21.5436 26.9334C23.7095 28.869 25.5664 29.4886 26.1464 29.7597C26.7268 30.0309 27.0364 29.9918 27.3845 29.6046C27.7327 29.2175 28.8155 27.9401 29.2023 27.3592C29.5891 26.7787 29.9759 26.8951 30.4791 27.0885C31.0205 27.2823 33.805 28.6752 34.3855 28.9464C34.9655 29.217 35.3518 29.3726 35.4677 29.6046C35.6227 29.9144 35.6232 31.0367 35.1591 32.3914C34.6945 33.7075 32.3741 35.024 31.2909 35.1014C30.2468 35.1787 29.2791 35.5658 24.4445 33.6693C18.6427 31.3852 14.9686 25.4239 14.6977 25.0368C14.4273 24.6497 12.3773 21.9402 12.3773 19.1143C12.3773 16.2888 13.8468 14.9336 14.3882 14.3527C14.9295 13.7722 15.51 13.6557 15.8968 13.6557Z" fill="#4EA43D"/>
</svg>
