<svg xmlns="http://www.w3.org/2000/svg" xmlns:xlink="http://www.w3.org/1999/xlink" width="800" zoomAndPan="magnify" viewBox="0 0 600 1499.999933" height="2000" preserveAspectRatio="xMidYMid meet" version="1.0"><defs><clipPath id="id1"><path d="M 0 0 L 412.5 0 L 412.5 412.5 L 0 412.5 Z M 0 0 " clip-rule="nonzero"/></clipPath></defs><g clip-path="url(#id1)"><path fill="#000000" d="M 206.082031 0.167969 C 92.40625 0.167969 0 92.570312 0 206.25 C 0 241.152344 8.640625 275.390625 25.589844 305.636719 L 7.980469 370.121094 C 4.988281 380.425781 7.976562 391.0625 15.621094 398.707031 C 23.265625 406.351562 33.90625 409.34375 44.210938 406.6875 L 111.351562 389.066406 C 140.601562 404.355469 173.175781 412.332031 206.414062 412.332031 C 320.09375 412.332031 412.5 319.929688 412.5 206.25 C 412.5 151.074219 391.226562 99.550781 352.335938 60.660156 C 313.113281 21.769531 261.261719 0.167969 206.082031 0.167969 Z M 206.082031 20.109375 C 255.941406 20.109375 302.808594 39.390625 337.710938 74.625 C 372.945312 109.855469 392.554688 156.722656 392.222656 206.25 C 392.222656 308.960938 308.792969 392.390625 206.082031 392.390625 C 175.171875 392.390625 144.257812 384.410156 117 369.785156 C 115.671875 369.121094 114.011719 368.460938 112.351562 368.460938 C 111.355469 368.460938 110.6875 368.460938 109.691406 368.792969 L 38.886719 387.402344 C 33.902344 388.734375 30.582031 386.070312 29.253906 384.742188 C 27.921875 383.414062 25.261719 380.09375 26.589844 375.109375 L 45.203125 306.628906 C 45.867188 303.972656 45.539062 301.316406 44.210938 298.988281 C 28.257812 271.066406 19.945312 238.824219 19.945312 206.25 C 19.945312 103.539062 103.375 20.109375 206.082031 20.109375 Z M 206.082031 50.023438 C 119.992188 50.023438 49.859375 119.828125 49.859375 206.25 C 49.859375 233.839844 57.175781 260.761719 70.800781 284.363281 C 76.121094 293.667969 77.449219 304.636719 74.789062 314.941406 L 65.148438 349.839844 L 102.378906 340.207031 C 105.703125 339.210938 109.027344 338.875 112.351562 338.875 C 119 338.875 125.644531 340.539062 131.296875 343.863281 C 154.230469 355.828125 179.824219 362.476562 206.082031 362.476562 C 292.171875 362.476562 362.308594 292.339844 362.308594 206.25 C 362.308594 164.367188 346.019531 125.144531 316.4375 95.558594 C 287.183594 66.308594 247.964844 50.023438 206.082031 50.023438 Z M 136.613281 115.503906 L 145.921875 115.503906 C 149.578125 115.503906 153.230469 115.835938 156.886719 123.8125 C 161.207031 133.453125 170.847656 157.71875 171.84375 160.046875 C 173.175781 162.371094 173.84375 165.363281 172.183594 168.6875 C 170.519531 172.011719 169.855469 174.003906 167.195312 176.996094 C 164.871094 179.988281 161.875 183.316406 159.878906 185.644531 C 157.554688 187.972656 154.894531 190.628906 157.886719 195.617188 C 160.878906 200.601562 170.515625 216.554688 185.140625 229.515625 C 203.753906 246.136719 219.710938 251.457031 224.695312 253.785156 C 229.683594 256.113281 232.34375 255.777344 235.335938 252.453125 C 238.328125 249.128906 247.632812 238.160156 250.957031 233.171875 C 254.28125 228.1875 257.605469 229.1875 261.929688 230.847656 C 266.582031 232.511719 290.511719 244.472656 295.5 246.800781 C 300.484375 249.125 303.804688 250.460938 304.800781 252.453125 C 306.132812 255.113281 306.136719 264.75 302.148438 276.382812 C 298.15625 287.683594 278.214844 298.988281 268.90625 299.652344 C 259.933594 300.316406 251.617188 303.640625 210.070312 287.355469 C 160.210938 267.742188 128.636719 216.554688 126.308594 213.230469 C 123.984375 209.90625 106.367188 186.640625 106.367188 162.375 C 106.367188 138.113281 118.996094 126.476562 123.648438 121.488281 C 128.300781 116.503906 133.289062 115.503906 136.613281 115.503906 Z M 136.613281 115.503906 " fill-opacity="1" fill-rule="nonzero"/></g></svg>