<svg width="42" height="42" viewBox="0 0 42 42" fill="none" xmlns="http://www.w3.org/2000/svg">
<path fill-rule="evenodd" clip-rule="evenodd" d="M30.6229 25.1686C30.0989 24.9077 27.5298 23.6513 27.0516 23.4763C26.5733 23.303 26.2251 23.2172 25.8752 23.7388C25.527 24.2568 24.5265 25.4293 24.2223 25.7758C23.9163 26.124 23.6121 26.1661 23.0898 25.907C22.5676 25.6445 20.883 25.0968 18.8872 23.3258C17.3345 21.9468 16.2847 20.244 15.9805 19.7225C15.6763 19.2028 15.9471 18.9211 16.2091 18.6621C16.4448 18.4293 16.7314 18.0548 16.9934 17.7521C17.2554 17.4475 17.3416 17.2305 17.5156 16.8823C17.6915 16.5358 17.6036 16.233 17.4717 15.9723C17.3416 15.7115 16.2971 13.1513 15.861 12.1101C15.4372 11.0968 15.0064 11.2351 14.6863 11.2176C14.3804 11.2035 14.0322 11.2001 13.684 11.2001C13.3359 11.2001 12.7697 11.3295 12.2914 11.8511C11.8113 12.3708 10.4626 13.629 10.4626 16.1893C10.4626 18.7477 12.3336 21.2205 12.5956 21.5688C12.8576 21.9153 16.2795 27.1687 21.5213 29.421C22.7698 29.9565 23.7422 30.2767 24.5001 30.5148C25.7521 30.912 26.8915 30.856 27.7919 30.7212C28.7942 30.5725 30.8832 29.463 31.3192 28.2485C31.7536 27.034 31.7536 25.9928 31.6235 25.7758C31.4933 25.5587 31.1452 25.4293 30.6212 25.1686H30.6229ZM21.0887 38.1238H21.0817C17.9683 38.1243 14.912 37.2914 12.2333 35.7123L11.6003 35.3378L5.02029 37.0563L6.77696 30.6723L6.36373 30.0177C4.62314 27.2604 3.702 24.0692 3.70675 20.8128C3.71027 11.2753 11.5071 3.51582 21.0958 3.51582C25.738 3.51582 30.1024 5.31831 33.3836 8.58732C35.0021 10.1914 36.2848 12.0988 37.1577 14.1994C38.0306 16.3 38.4763 18.5519 38.469 20.8251C38.4655 30.3625 30.6686 38.1238 21.0887 38.1238ZM35.8806 6.10406C33.9432 4.16318 31.638 2.62426 29.0985 1.57647C26.5591 0.528685 23.836 -0.00713395 21.087 7.17208e-05C9.5623 7.17208e-05 0.179359 9.33633 0.175842 20.811C0.170502 24.4628 1.13308 28.0514 2.96646 31.2148L0 42L11.0851 39.1055C14.1515 40.7682 17.5879 41.6395 21.08 41.6395H21.0887C32.6134 41.6395 41.9964 32.3033 41.9999 20.8268C42.0084 18.092 41.4719 15.3827 40.4216 12.8556C39.3712 10.3285 37.8278 8.03373 35.8806 6.10406Z" fill="#4EA43D"/>
</svg>
